 <svg  version="1.0" xmlns="http://www.w3.org/2000/svg"  width="450.000000pt" height="450.000000pt" viewBox="0 0 450.000000 450.000000"  preserveAspectRatio="xMidYMid meet">  <g transform="translate(0.000000,450.000000) scale(0.100000,-0.100000)" fill="#20796a" stroke="none"> <path d="M2275 3005 c-33 -7 -160 -31 -281 -55 l-221 -42 -58 -150 c-52 -134 -177 -368 -257 -481 -11 -16 -18 -30 -15 -33 3 -3 30 2 62 11 31 9 58 15 59 13 2 -1 6 -47 8 -100 4 -68 2 -98 -6 -98 -22 1 -92 38 -113 61 -32 35 -53 92 -53 141 1 37 5 46 33 63 42 26 80 100 73 140 -4 17 -17 40 -31 52 -24 21 -25 27 -25 135 0 132 -10 158 -64 158 -50 0 -66 -25 -66 -100 0 -70 -8 -70 -34 2 -18 49 -51 78 -89 78 -53 0 -61 -55 -22 -152 14 -34 25 -62 25 -63 0 -1 -19 -1 -41 -1 -62 1 -83 -31 -88 -139 -3 -79 -1 -85 23 -109 14 -15 34 -26 44 -26 11 0 35 -7 55 -15 28 -12 36 -21 42 -51 22 -117 89 -215 179 -261 39 -20 70 -27 133 -31 l83 -4 24 -43 c14 -23 57 -72 95 -107 88 -82 179 -128 301 -152 35 -7 74 -61 66 -91 -3 -12 -16 -25 -28 -29 -67 -17 -319 3 -472 38 -38 9 -70 15 -72 13 -3 -3 20 -328 31 -428 l6 -57 -73 -17 c-40 -10 -88 -24 -106 -31 -77 -31 -33 -35 348 -35 l375 1 -3 22 c-6 42 -52 126 -91 165 -35 34 -72 56 -163 92 -20 7 -28 18 -28 35 l0 25 83 -6 c142 -9 254 23 285 83 l17 32 75 -91 c41 -50 118 -141 170 -202 52 -61 101 -119 109 -128 11 -14 10 -18 -13 -28 -14 -7 -26 -18 -26 -26 0 -10 34 -13 165 -13 91 0 165 4 165 8 0 17 -25 31 -101 53 -43 13 -78 27 -76 31 1 4 85 98 186 208 228 249 227 248 214 269 -8 12 -24 16 -61 15 -58 -2 -201 -66 -340 -152 -46 -29 -87 -52 -90 -51 -4 1 -71 69 -148 152 l-142 152 61 22 c114 41 243 147 291 241 19 36 23 38 46 17 37 -33 131 -57 212 -53 70 3 78 1 78 -15 0 -41 126 -62 195 -33 31 13 35 19 35 53 0 33 5 41 36 61 43 28 80 102 65 130 -6 11 -6 24 0 35 13 23 0 157 -15 158 -17 2 -20 2 -44 -6 l-24 -7 7 74 c8 89 -1 103 -71 114 -63 9 -190 0 -209 -16 -11 -9 -15 -33 -15 -100 0 -67 -4 -91 -16 -101 -32 -27 -56 -90 -52 -138 3 -25 8 -54 12 -63 14 -30 -76 -24 -131 8 -44 25 -44 26 -37 67 20 113 -1 255 -52 346 -13 24 -23 45 -22 46 2 2 47 10 101 20 53 10 97 18 97 20 0 1 -67 51 -149 111 l-148 109 -89 132 c-99 147 -89 141 -199 118z m169 -138 c36 -54 66 -100 66 -102 0 -3 -9 -5 -19 -5 -25 0 -752 -137 -776 -146 -22 -9 -22 -9 38 146 l45 115 64 13 c343 71 494 97 504 87 6 -5 41 -54 78 -108z m-1040 -83 c13 -12 16 -38 16 -120 l0 -104 -41 0 -42 0 7 108 c5 82 10 110 23 120 21 15 18 15 37 -4z m-170 -33 c20 -22 76 -155 76 -181 0 -16 -55 -49 -64 -39 -9 11 -66 197 -66 217 0 28 30 30 54 3z m1412 -100 c58 -44 111 -82 117 -84 24 -9 -3 -18 -128 -43 -71 -14 -132 -27 -136 -30 -4 -2 -13 21 -19 52 -24 114 -111 163 -171 96 -25 -28 -26 -28 -49 -10 -69 56 -156 -33 -164 -167 -2 -49 -3 -50 -42 -58 -21 -4 -145 -30 -274 -57 -129 -27 -243 -52 -252 -55 -18 -7 -26 9 -9 19 5 3 43 64 86 136 54 90 83 130 95 130 10 0 112 18 227 41 114 22 258 49 318 61 61 11 139 26 175 33 113 22 111 22 226 -64z m-243 -29 c19 -21 44 -77 49 -112 3 -21 -2 -25 -32 -31 -19 -3 -46 -9 -60 -13 -24 -7 -26 -5 -38 60 -12 64 -12 68 9 90 27 29 50 30 72 6z m-154 -26 c20 -21 51 -101 51 -130 0 -6 -28 -17 -62 -24 -35 -6 -73 -15 -85 -18 -21 -6 -23 -3 -23 27 0 52 18 105 46 139 31 36 44 37 73 6z m-1047 -63 c15 -16 28 -39 30 -53 6 -45 148 -98 148 -55 0 8 -9 15 -20 15 -33 0 -100 31 -100 47 0 41 160 57 198 20 38 -39 4 -131 -58 -159 -29 -12 -30 -16 -30 -73 0 -119 85 -225 181 -225 34 0 39 -3 49 -36 7 -19 10 -37 8 -38 -1 -2 -34 0 -71 5 -147 18 -239 107 -270 262 -12 57 -15 63 -45 72 -28 8 -32 13 -26 30 13 35 10 128 -3 132 -9 3 -13 -10 -13 -47 0 -60 -13 -90 -40 -90 -28 0 -42 34 -42 100 0 108 49 151 104 93z m1453 -104 c96 -189 62 -415 -86 -574 -73 -77 -136 -119 -231 -152 -99 -35 -241 -37 -343 -6 -233 73 -386 268 -389 499 -1 40 1 75 5 78 3 3 104 26 225 51 120 25 229 48 241 51 18 5 23 1 29 -22 11 -46 42 -102 63 -114 38 -20 80 -12 110 20 27 30 27 31 46 10 45 -49 121 -3 149 90 9 29 16 64 16 76 0 19 9 24 63 36 34 8 65 13 70 11 4 -3 19 -27 32 -54z m-201 -11 c-11 -60 -44 -118 -71 -125 -32 -7 -57 7 -61 36 -5 34 6 57 20 43 30 -30 73 5 63 49 -6 27 -4 29 24 29 29 0 30 -2 25 -32z m774 -3 c4 -3 0 -10 -8 -15 -19 -12 -211 -12 -230 0 -16 10 -13 12 35 24 26 6 195 -1 203 -9z m-928 -7 c0 -55 -55 -148 -86 -148 -16 0 -64 47 -64 62 0 5 9 7 19 3 27 -8 54 31 40 57 -11 20 -6 23 41 31 45 8 50 7 50 -5z m930 -55 c0 -19 -7 -22 -72 -28 -98 -9 -172 4 -176 30 -3 19 3 20 123 20 122 0 125 -1 125 -22z m-22 -87 c2 -10 -2 -23 -10 -27 -22 -12 -69 -84 -69 -105 0 -11 1 -41 2 -69 1 -27 -1 -70 -6 -93 -6 -39 -4 -47 20 -72 l26 -27 -23 -7 c-38 -10 -72 -7 -95 9 -19 13 -21 25 -22 101 -1 81 1 87 33 134 41 59 51 96 36 134 -5 15 -10 29 -10 31 0 5 67 12 95 11 11 -1 21 -9 23 -20z m-142 -21 c12 -30 -7 -84 -45 -126 l-38 -44 8 -75 c4 -41 3 -79 -1 -84 -5 -5 -46 -7 -92 -4 -62 3 -98 11 -140 31 -62 28 -64 31 -48 72 l10 27 31 -26 c17 -14 42 -29 56 -32 25 -7 131 1 140 9 2 3 -3 20 -12 38 -38 72 -5 157 80 210 36 23 44 23 51 4z m244 -10 c0 -51 -91 -131 -141 -123 -21 3 -20 5 13 48 53 70 128 113 128 75z m-8 -124 c-34 -46 -122 -95 -139 -77 -13 13 21 55 49 61 16 4 45 23 66 43 32 32 37 34 40 18 2 -10 -5 -31 -16 -45z m8 -59 c0 -37 -80 -114 -133 -127 -23 -6 -27 -4 -27 13 0 27 47 82 70 82 11 0 32 11 47 25 34 29 43 31 43 7z m-1003 -424 c13 -12 23 -26 23 -33 0 -10 -98 -90 -111 -90 -6 0 -109 121 -109 129 0 3 35 7 78 9 42 1 81 4 86 5 6 1 20 -8 33 -20z m95 -104 c24 -26 43 -50 43 -54 0 -4 -26 -29 -58 -54 l-57 -47 -28 32 c-69 82 -68 71 -4 122 31 25 58 46 59 47 2 0 22 -21 45 -46z m-771 -44 c4 -30 15 -133 24 -228 l18 -173 200 1 c199 2 216 -1 217 -32 0 -5 -108 -8 -240 -8 l-240 0 0 26 c0 41 -29 406 -36 442 -5 32 -4 33 23 30 26 -3 28 -7 34 -58z m543 38 c39 -56 7 -105 -83 -132 -81 -24 -81 -24 -81 43 l0 58 52 5 c38 4 57 11 68 26 19 27 25 27 44 0z m891 5 c0 -7 -88 -108 -195 -225 -107 -118 -208 -229 -224 -248 -27 -33 -39 -32 -46 3 -1 5 97 116 216 248 201 221 249 264 249 222z m-1286 -37 c5 -6 11 -31 14 -56 11 -81 22 -135 32 -152 6 -9 32 -26 58 -37 63 -27 137 -79 137 -95 0 -19 -46 -26 -182 -25 -73 0 -120 4 -124 10 -13 22 -46 362 -35 368 15 10 89 0 100 -13z m135 4 c19 0 21 -5 21 -61 l0 -61 -35 6 c-19 3 -43 6 -52 6 -15 0 -18 10 -18 61 l0 62 31 -7 c17 -3 41 -6 53 -6z m76 -60 c0 -47 -3 -60 -15 -60 -12 0 -15 13 -15 60 0 47 3 60 15 60 12 0 15 -13 15 -60z m896 16 c-2 -13 -115 -142 -243 -276 l-62 -65 -35 34 c-51 50 -51 62 8 120 48 47 109 86 265 167 73 39 70 38 67 20z m-408 -5 c-3 -10 -114 -101 -122 -101 -18 0 0 23 50 64 53 43 80 57 72 37z m62 -63 l40 -41 -61 -59 -62 -59 -43 48 c-24 26 -43 50 -43 53 0 5 120 100 126 100 2 0 22 -19 43 -42z"/> <path d="M2335 2850 c-3 -6 0 -12 7 -14 7 -2 34 -11 61 -20 39 -12 47 -13 47 -1 0 33 -98 63 -115 35z"/> <path d="M2139 2792 c-24 -21 -30 -34 -27 -56 l3 -29 38 48 c20 27 37 52 37 57 0 15 -20 8 -51 -20z"/> <path d="M1989 2233 c-38 -51 -104 -103 -130 -103 -23 0 -34 -19 -21 -32 15 -15 55 -2 91 28 l32 26 48 -45 c82 -77 202 -127 307 -127 74 0 186 36 182 58 -4 20 -17 19 -73 -2 -52 -20 -158 -20 -221 -1 -46 13 -132 64 -194 114 l-25 20 33 40 c35 44 39 56 18 64 -8 3 -27 -12 -47 -40z"/> </g> </svg> 